<svg width="106" height="18" viewBox="0 0 106 18" fill="none" xmlns="http://www.w3.org/2000/svg">
<path d="M4.06 17L5.36 11.0842L1 7.10526L6.76 6.57895L9 1L11.24 6.57895L17 7.10526L12.64 11.0842L13.94 17L9 13.8632L4.06 17Z" fill="#FFE920"/>
<path d="M26.06 17L27.36 11.0842L23 7.10526L28.76 6.57895L31 1L33.24 6.57895L39 7.10526L34.64 11.0842L35.94 17L31 13.8632L26.06 17Z" fill="#FFE920"/>
<path d="M48.06 17L49.36 11.0842L45 7.10526L50.76 6.57895L53 1L55.24 6.57895L61 7.10526L56.64 11.0842L57.94 17L53 13.8632L48.06 17Z" fill="#FFE920"/>
<path d="M70.06 17L71.36 11.0842L67 7.10526L72.76 6.57895L75 1L77.24 6.57895L83 7.10526L78.64 11.0842L79.94 17L75 13.8632L70.06 17Z" fill="#FFE920"/>
<path d="M92.06 17L93.36 11.0842L89 7.10526L94.76 6.57895L97 1L99.24 6.57895L105 7.10526L100.64 11.0842L101.94 17L97 13.8632L92.06 17Z" fill="#FFE920"/>
</svg>
