<svg width="24" height="24" viewBox="0 0 24 24" fill="none" xmlns="http://www.w3.org/2000/svg">
<path d="M11.89 4.13624L12 4.25491L12.11 4.13624C13.2527 2.90353 14.7997 2.15 16.5 2.15C19.991 2.15 22.85 5.33735 22.85 9.30709C22.85 12.8333 21.1345 15.5751 19.0546 17.6049C16.9738 19.6358 14.5374 20.9443 13.1233 21.5983C12.3974 21.9339 11.6026 21.9339 10.8768 21.5983C9.46263 20.9443 7.02623 19.6358 4.94537 17.6049C2.86554 15.5751 1.15 12.8333 1.15 9.30709C1.15 5.33735 4.00902 2.15 7.5 2.15C9.20032 2.15 10.7473 2.90353 11.89 4.13624ZM11.4176 6.30146L10.7252 5.5545C9.88951 4.65294 8.75607 4.09834 7.5 4.09834C4.91585 4.09834 2.85 6.44736 2.85 9.30709C2.85 12.0387 4.16665 14.2867 6.04699 16.1219C7.92771 17.9574 10.1729 19.1722 11.5117 19.7913C11.83 19.9385 12.17 19.9385 12.4883 19.7913C13.8271 19.1722 16.0723 17.9574 17.953 16.1218C19.8334 14.2867 21.15 12.0387 21.15 9.30709C21.15 6.44736 19.0841 4.09834 16.5 4.09834C15.2439 4.09834 14.1105 4.65294 13.2748 5.5545L12.5824 6.30146C12.2548 6.65485 11.7452 6.65484 11.4176 6.30146Z" fill="#343839" stroke="white" stroke-width="0.3"/>
</svg>
