<svg width="114" height="18" viewBox="0 0 114 18" fill="none" xmlns="http://www.w3.org/2000/svg">
<g clip-path="url(#clip0_731_391)">
<path d="M8.53512 0.139607C8.3936 0.0465357 8.20816 0 7.9788 0H0.810075C0.580715 0 0.390395 0.0465357 0.234234 0.139607C0.0780744 0.232678 -5.62146e-06 0.344364 -5.62146e-06 0.479317C-5.62146e-06 0.614271 0.0780744 0.725956 0.234234 0.819028C0.390395 0.912099 0.580715 0.958635 0.810075 0.958635H5.40704C6.37816 0.958635 7.16384 1.59152 7.16384 2.37332V15.2265C7.13456 15.259 7.11992 15.3754 7.11992 15.5755C7.11992 15.7756 7.04672 15.9803 6.9052 16.1944C6.76368 16.4085 6.5148 16.6086 6.15856 16.7854C5.80232 16.9669 5.24112 17.0553 4.47496 17.0553H4.26024C3.66488 17.0553 3.18664 16.9948 2.8304 16.8738C2.47416 16.7528 2.20576 16.6039 2.02032 16.4224C1.83487 16.2409 1.71288 16.0455 1.6592 15.8314C1.60064 15.6174 1.57135 15.4173 1.57135 15.2265V11.1127H1.52743C1.586 11.0615 1.60552 10.9871 1.59087 10.894C1.57623 10.8009 1.57135 10.7079 1.57135 10.6241C1.57135 10.4891 1.49815 10.3775 1.35663 10.289C1.21511 10.2053 1.02967 10.1587 0.800315 10.1587C0.570955 10.1587 0.380635 10.2006 0.224474 10.289C0.0683144 10.3728 -0.00976562 10.4845 -0.00976562 10.6241V10.894C-0.00976562 10.9871 0.00487438 11.0615 0.0341544 11.1127H-0.00976562V15.2265C-0.00976562 15.7384 0.102474 16.1711 0.331834 16.5109C0.561195 16.8552 0.849115 17.1344 1.20535 17.3485C1.56159 17.5626 1.96664 17.7208 2.42048 17.8232C2.87432 17.9255 3.32816 17.986 3.78688 18.0047H4.47008C4.9532 18.0047 5.44608 17.9674 5.94384 17.8883C6.4416 17.8092 6.89544 17.6696 7.31024 17.4648C7.72016 17.2601 8.06176 16.9762 8.33504 16.6179C8.60344 16.2596 8.74008 15.7942 8.74008 15.2311V0.488625C8.74008 0.353671 8.66688 0.237332 8.52536 0.139607H8.53512Z" fill="#F7F7F7"/>
<path d="M20.5445 0.651499C20.1882 0.451396 19.7832 0.302482 19.3294 0.200103C18.8755 0.102378 18.4168 0.0418817 17.963 0.0232675V-0.00465393H17.2798C16.7966 -0.00465393 16.3038 0.0372282 15.806 0.125646C15.3082 0.20941 14.8544 0.358324 14.4396 0.563081C14.0248 0.767838 13.6832 1.05171 13.4148 1.41003C13.1464 1.76836 13.0098 2.22441 13.0098 2.77353V15.2172C13.0098 15.7849 13.1464 16.2456 13.4148 16.6039C13.6832 16.9623 14.0248 17.2461 14.4396 17.4509C14.8495 17.6556 15.3082 17.7999 15.806 17.8744C16.3038 17.9535 16.7918 17.9907 17.2798 17.9907H17.963C18.4168 17.9721 18.8706 17.9116 19.3294 17.8092C19.7832 17.7068 20.1882 17.5486 20.5445 17.3345C20.9007 17.1205 21.1886 16.8413 21.418 16.4969C21.6474 16.1525 21.7596 15.7244 21.7596 15.2125V12.9741C21.7596 12.8392 21.6815 12.7229 21.5254 12.6251C21.3692 12.5321 21.1789 12.4855 20.9495 12.4855C20.7202 12.4855 20.5347 12.5321 20.3932 12.6251C20.2517 12.7182 20.1785 12.8345 20.1785 12.9741V15.2125C20.1785 15.4033 20.1492 15.6034 20.0906 15.8175C20.0321 16.0315 19.915 16.227 19.7295 16.4085C19.5441 16.59 19.2757 16.7389 18.9194 16.8599C18.5632 16.9809 18.085 17.0414 17.4896 17.0414H17.2749C16.6795 17.0414 16.2013 16.9809 15.845 16.8599C15.4888 16.7389 15.2204 16.59 15.035 16.4085C14.8495 16.227 14.7275 16.0315 14.6738 15.8175C14.6153 15.6034 14.586 15.4033 14.586 15.2125V10.9173C14.586 10.1355 15.3717 9.50258 16.3428 9.50258H18.978C19.2074 9.50258 19.3977 9.45605 19.5538 9.36298C19.71 9.26991 19.7881 9.15822 19.7881 9.02327C19.7881 8.88831 19.71 8.77663 19.5538 8.68356C19.3977 8.59048 19.2074 8.54395 18.978 8.54395H16.3428C15.3717 8.54395 14.586 7.91106 14.586 7.12926V2.76422C14.586 2.57342 14.6153 2.37332 14.6738 2.1546C14.7324 1.94054 14.8495 1.74043 15.035 1.55894C15.2204 1.37746 15.4888 1.2332 15.845 1.11686C16.2013 1.00517 16.6795 0.949327 17.2749 0.949327H17.4896C18.085 0.949327 18.5632 1.00517 18.9194 1.11686C19.2757 1.22854 19.5441 1.3728 19.7295 1.55429C19.915 1.73578 20.037 1.93123 20.0906 2.14529C20.1492 2.35936 20.1785 2.55946 20.1785 2.75026V5.01189C20.1785 5.1515 20.2468 5.25853 20.3932 5.34695C20.5347 5.43071 20.7202 5.47725 20.9495 5.47725C21.1789 5.47725 21.3692 5.43537 21.5254 5.34695C21.6815 5.26318 21.7596 5.1515 21.7596 5.01189V2.75026C21.7596 2.23371 21.6474 1.80558 21.418 1.46587C21.1886 1.12151 20.9007 0.851602 20.5445 0.651499Z" fill="#F7F7F7"/>
<path d="M41.3437 0.139607C41.2022 0.0465357 41.0168 0 40.7874 0C40.558 0 40.3677 0.0465357 40.2116 0.139607C40.0554 0.232678 39.9773 0.349018 39.9773 0.488625V15.2218C39.9773 15.4126 39.948 15.6127 39.8895 15.8268C39.8309 16.0408 39.7138 16.2363 39.5284 16.4178C39.3429 16.5993 39.0745 16.7482 38.7183 16.8692C38.362 16.9902 37.8838 17.0507 37.2884 17.0507C36.6931 17.0507 36.2148 16.9902 35.8586 16.8692C35.5024 16.7482 35.234 16.5993 35.0485 16.4178C34.8631 16.2363 34.7411 16.0408 34.6874 15.8268C34.6288 15.6127 34.6044 15.4126 34.6044 15.2218V0.488625C34.6044 0.353671 34.5264 0.237332 34.3702 0.139607C34.214 0.0465357 34.0237 0 33.7944 0C33.565 0 33.3796 0.0465357 33.238 0.139607C33.0965 0.232678 33.0233 0.349018 33.0233 0.488625V15.2218C33.0233 15.4126 32.994 15.6127 32.9355 15.8268C32.8769 16.0408 32.7598 16.2363 32.5744 16.4178C32.3889 16.5993 32.1205 16.7482 31.7643 16.8692C31.408 16.9902 30.9298 17.0507 30.3344 17.0507H30.2905C29.6951 17.0507 29.2169 16.9902 28.8607 16.8692C28.5044 16.7482 28.236 16.5993 28.0506 16.4178C27.8651 16.2363 27.7431 16.0408 27.6895 15.8268C27.6309 15.6127 27.6016 15.4126 27.6016 15.2218V0.488625C27.6016 0.353671 27.5284 0.237332 27.3869 0.139607C27.2454 0.0465357 27.0599 0 26.8306 0C26.6012 0 26.4109 0.0465357 26.2547 0.139607C26.0986 0.232678 26.0205 0.349018 26.0205 0.488625V15.2218C26.0205 15.7896 26.1571 16.2503 26.4255 16.6086C26.6939 16.9669 27.0355 17.2508 27.4503 17.4555C27.8603 17.6603 28.319 17.8045 28.8167 17.879C29.3145 17.9581 29.8025 17.9953 30.2905 17.9953H30.3344C30.9298 17.9953 31.5496 17.9255 32.1888 17.7906C32.4621 17.7301 32.7159 17.651 32.955 17.5533C33.482 17.3299 34.0969 17.3299 34.6288 17.5533C34.8631 17.651 35.1168 17.7301 35.395 17.7906C36.0343 17.9302 36.6687 17.9953 37.2933 17.9953C37.7764 17.9953 38.2693 17.9581 38.7671 17.879C39.2648 17.7999 39.7187 17.6603 40.1335 17.4555C40.5434 17.2508 40.885 16.9669 41.1583 16.6086C41.4267 16.2503 41.5633 15.7849 41.5633 15.2218V0.488625C41.5633 0.353671 41.4901 0.237332 41.3486 0.139607H41.3437Z" fill="#F7F7F7"/>
<path d="M53.3531 0.651499C52.9968 0.451396 52.5918 0.302482 52.138 0.200103C51.6841 0.102378 51.2254 0.0418817 50.7716 0.0232675V-0.00465393H50.0884C49.6052 -0.00465393 49.1124 0.0372282 48.6146 0.125646C48.1168 0.20941 47.663 0.358324 47.2482 0.563081C46.8334 0.767838 46.4918 1.05171 46.2234 1.41003C45.955 1.76836 45.8184 2.22441 45.8184 2.77353V15.2172C45.8184 15.7849 45.955 16.2456 46.2234 16.6039C46.4918 16.9623 46.8334 17.2461 47.2482 17.4509C47.6581 17.6556 48.1168 17.7999 48.6146 17.8744C49.1124 17.9535 49.6004 17.9907 50.0884 17.9907H50.7716C51.2254 17.9721 51.6792 17.9116 52.138 17.8092C52.5918 17.7068 52.9968 17.5486 53.3531 17.3345C53.7093 17.1205 53.9972 16.8413 54.2266 16.4969C54.456 16.1525 54.5682 15.7244 54.5682 15.2125V12.9741C54.5682 12.8392 54.4901 12.7229 54.334 12.6251C54.1778 12.5321 53.9875 12.4855 53.7581 12.4855C53.5288 12.4855 53.3433 12.5321 53.2018 12.6251C53.0603 12.7182 52.9871 12.8345 52.9871 12.9741V15.2125C52.9871 15.4033 52.9578 15.6034 52.8992 15.8175C52.8407 16.0315 52.7236 16.227 52.5381 16.4085C52.3527 16.59 52.0843 16.7389 51.728 16.8599C51.3718 16.9809 50.8936 17.0414 50.2982 17.0414H50.0835C49.4881 17.0414 49.0099 16.9809 48.6536 16.8599C48.2974 16.7389 48.029 16.59 47.8436 16.4085C47.6581 16.227 47.5361 16.0315 47.4824 15.8175C47.4239 15.6034 47.3946 15.4033 47.3946 15.2125V10.9173C47.3946 10.1355 48.1803 9.50258 49.1514 9.50258H51.7866C52.016 9.50258 52.2063 9.45605 52.3624 9.36298C52.5186 9.26991 52.5967 9.15822 52.5967 9.02327C52.5967 8.88831 52.5186 8.77663 52.3624 8.68356C52.2063 8.59048 52.016 8.54395 51.7866 8.54395H49.1514C48.1803 8.54395 47.3946 7.91106 47.3946 7.12926V2.76422C47.3946 2.57342 47.4239 2.37332 47.4824 2.1546C47.541 1.94054 47.6581 1.74043 47.8436 1.55894C48.029 1.37746 48.2974 1.2332 48.6536 1.11686C49.0099 1.00517 49.4881 0.949327 50.0835 0.949327H50.2982C50.8936 0.949327 51.3718 1.00517 51.728 1.11686C52.0843 1.22854 52.3527 1.3728 52.5381 1.55429C52.7236 1.73578 52.8456 1.93123 52.8992 2.14529C52.9578 2.35936 52.9871 2.55946 52.9871 2.75026V5.01189C52.9871 5.1515 53.0554 5.25853 53.2018 5.34695C53.3433 5.43071 53.5288 5.47725 53.7581 5.47725C53.9875 5.47725 54.1778 5.43537 54.334 5.34695C54.4901 5.26318 54.5682 5.1515 54.5682 5.01189V2.75026C54.5682 2.23371 54.456 1.80558 54.2266 1.46587C53.9972 1.12151 53.7093 0.851602 53.3531 0.651499Z" fill="#F7F7F7"/>
<path d="M67.3632 17.1763C67.2217 17.0926 67.0363 17.046 66.8069 17.046H62.166C61.1949 17.046 60.4092 16.4131 60.4092 15.6313V0.488625C60.4092 0.353671 60.336 0.237332 60.1945 0.139607C60.053 0.0465357 59.8676 0 59.6382 0C59.4088 0 59.2185 0.0465357 59.0624 0.139607C58.9062 0.232678 58.8281 0.349018 58.8281 0.488625V17.5114C58.8281 17.8371 59.0965 18 59.6382 18H66.8069C67.0363 18 67.2168 17.9535 67.3632 17.8604C67.5048 17.7673 67.578 17.651 67.578 17.5114C67.578 17.3718 67.5048 17.2647 67.3632 17.1763Z" fill="#F7F7F7"/>
<path d="M85.5271 0.549121C85.1171 0.349018 84.6633 0.209411 84.1704 0.125646C83.6775 0.0418821 83.1895 0 82.7064 0H82.0281V0.0279214C81.5743 0.0465357 81.1204 0.107032 80.6715 0.209411C80.2176 0.311789 79.8126 0.465357 79.4612 0.670114C79.105 0.874871 78.8171 1.14943 78.5926 1.4938C78.3681 1.83816 78.251 2.26629 78.251 2.77818V6.89193C78.251 7.44105 78.3779 7.89245 78.6365 8.25543C78.8903 8.61375 79.227 8.89762 79.6369 9.10238C80.0468 9.30713 80.5055 9.45605 81.0033 9.53981C81.5011 9.62358 81.9891 9.67011 82.4771 9.67011H82.7308C83.3262 9.67011 83.7995 9.73061 84.1363 9.8516C84.4779 9.9726 84.7414 10.1215 84.9268 10.303C85.1123 10.4845 85.2343 10.6799 85.2879 10.894C85.3465 11.1081 85.3758 11.3082 85.3758 11.499H85.4197C85.4197 11.499 85.4099 11.5269 85.4002 11.5362C85.3855 11.5455 85.3807 11.5641 85.3807 11.6013V15.2265C85.3807 15.4173 85.3514 15.6174 85.2928 15.8314C85.2343 16.0455 85.1171 16.241 84.9317 16.4224C84.7463 16.6039 84.4827 16.7528 84.1411 16.8738C83.7995 16.9948 83.3311 17.0553 82.7357 17.0553H82.521C81.9256 17.0553 81.4474 16.9948 81.0911 16.8738C80.7349 16.7528 80.4665 16.6039 80.2811 16.4224C80.0956 16.241 79.9736 16.0455 79.9199 15.8314C79.8614 15.6174 79.8321 15.4173 79.8321 15.2265V13.1417C79.8321 13.0067 79.754 12.895 79.5979 12.8066C79.4417 12.7229 79.2514 12.6763 79.022 12.6763C78.7927 12.6763 78.6072 12.7182 78.4657 12.8066C78.3242 12.8904 78.251 13.0021 78.251 13.1417V15.2265C78.251 15.7942 78.3876 16.2549 78.656 16.6132C78.9244 16.9716 79.266 17.2554 79.6759 17.4602C80.0859 17.6649 80.5397 17.8092 81.0326 17.8837C81.5303 17.9628 82.0183 18 82.4966 18H83.1749C83.6287 17.9814 84.0728 17.9209 84.512 17.8185C84.9512 17.7161 85.3563 17.5579 85.7223 17.3438C86.0883 17.1298 86.3859 16.8506 86.6153 16.5062C86.8398 16.1618 86.9569 15.7337 86.9569 15.2218V11.5967C86.9569 11.5455 86.9423 11.5129 86.913 11.4943H86.9569C86.9569 10.9266 86.8203 10.4659 86.5519 10.1075C86.2835 9.74922 85.9419 9.46536 85.5319 9.2606C85.122 9.05584 84.6682 8.91158 84.1753 8.83712C83.6824 8.76267 83.1944 8.72079 82.7113 8.72079H82.5015C81.9061 8.72079 81.4327 8.66029 81.0814 8.5393C80.73 8.4183 80.4616 8.26939 80.2762 8.0879C80.0907 7.90641 79.9736 7.71096 79.9151 7.49224C79.8565 7.27818 79.8321 7.07342 79.8321 6.88728V2.75491C79.8321 2.56412 79.8614 2.36401 79.9199 2.14995C79.9785 1.93588 80.0956 1.73578 80.2811 1.55895C80.4665 1.37746 80.7349 1.2332 81.0911 1.12151C81.4474 1.00982 81.9256 0.953981 82.521 0.953981H82.7357C83.3311 0.953981 83.8044 1.00982 84.1411 1.12151C84.4827 1.2332 84.7463 1.37746 84.9317 1.55895C85.1171 1.74043 85.2391 1.93588 85.2928 2.14995C85.3514 2.36401 85.3807 2.56412 85.3807 2.75491V4.83971C85.3807 4.97932 85.4587 5.091 85.61 5.18873C85.7613 5.2818 85.9516 5.32833 86.1712 5.32833C86.3908 5.32833 86.5811 5.2818 86.7324 5.18873C86.8837 5.09566 86.9618 4.97932 86.9618 4.83971V2.75026C86.9618 2.20114 86.8251 1.74974 86.5567 1.39142C86.2883 1.03309 85.9467 0.753878 85.5368 0.553775L85.5271 0.549121Z" fill="#F7F7F7"/>
<path d="M98.7857 0.670114C98.4295 0.465357 98.0244 0.311789 97.5706 0.209411C97.1167 0.107032 96.658 0.0465357 96.2042 0.0279214V0H95.521C95.0379 0 94.545 0.0418821 94.0472 0.1303C93.5495 0.214064 93.0956 0.362978 92.6808 0.567735C92.266 0.772492 91.9244 1.05636 91.656 1.41468C91.3876 1.77301 91.251 2.22906 91.251 2.77818V17.5114C91.251 17.651 91.3242 17.7627 91.4657 17.8604C91.6072 17.9535 91.7927 18 92.022 18C92.5637 18 92.8321 17.8371 92.8321 17.5114V14.0677C92.8321 13.2859 93.6178 12.6531 94.5889 12.6531H96.6629C97.634 12.6531 98.4197 13.2859 98.4197 14.0677V17.5114C98.4197 17.651 98.488 17.7627 98.6344 17.8604C98.7759 17.9535 98.9614 18 99.1907 18C99.4201 18 99.6104 17.9535 99.7666 17.8604C99.9227 17.7673 100.001 17.651 100.001 17.5114V2.77818C100.001 2.26163 99.8886 1.83351 99.6592 1.4938C99.4299 1.14943 99.1419 0.874871 98.7857 0.670114ZM98.4246 10.289C98.4246 11.0708 97.6389 11.7037 96.6678 11.7037H94.5938C93.6227 11.7037 92.837 11.0708 92.837 10.289V2.75491C92.837 2.56412 92.8663 2.36401 92.9248 2.14995C92.9834 1.93588 93.1005 1.73578 93.2859 1.55895C93.4714 1.37746 93.7398 1.2332 94.096 1.12151C94.4523 1.00982 94.9305 0.953981 95.5259 0.953981H95.7406C96.3359 0.953981 96.8142 1.00982 97.1704 1.12151C97.5267 1.2332 97.7951 1.37746 97.9805 1.55895C98.1659 1.74043 98.2879 1.93588 98.3416 2.14995C98.4002 2.36401 98.4295 2.56877 98.4295 2.75491V10.2844L98.4246 10.289Z" fill="#F7F7F7"/>
<path d="M112.929 0.139607C112.787 0.0465357 112.602 0 112.372 0C112.143 0 111.953 0.0465357 111.796 0.139607C111.64 0.232678 111.562 0.349018 111.562 0.488625V8.8697C111.562 9.0605 111.533 9.2606 111.474 9.47466C111.416 9.68873 111.299 9.88418 111.113 10.0657C110.928 10.2472 110.659 10.3961 110.303 10.5171C109.947 10.6381 109.469 10.6986 108.873 10.6986H108.532C107.936 10.6986 107.458 10.6381 107.102 10.5171C106.746 10.3961 106.477 10.2472 106.292 10.0657C106.106 9.88418 105.984 9.68873 105.931 9.47466C105.872 9.2606 105.843 9.0605 105.843 8.8697V0.488625C105.843 0.353671 105.765 0.237332 105.609 0.139607C105.452 0.0465357 105.262 0 105.033 0C104.803 0 104.618 0.0465357 104.476 0.139607C104.335 0.232678 104.262 0.349018 104.262 0.488625V8.8697C104.262 9.36763 104.369 9.7818 104.584 10.1169C104.799 10.4519 105.077 10.7265 105.413 10.9405C105.755 11.1546 106.141 11.3175 106.565 11.4292C106.565 11.4292 106.575 11.4292 106.58 11.4292C107.321 11.6246 107.849 12.1598 107.849 12.788V17.5067C107.849 17.6463 107.927 17.758 108.078 17.8557C108.229 17.9488 108.419 17.9953 108.639 17.9953C108.859 17.9953 109.049 17.9488 109.2 17.8557C109.352 17.7627 109.43 17.6463 109.43 17.5067V12.8159C109.43 12.1737 109.971 11.6246 110.742 11.4478C110.757 11.4478 110.772 11.4385 110.786 11.4385C111.23 11.3361 111.631 11.1779 111.972 10.9638C112.319 10.7497 112.597 10.4705 112.811 10.1262C113.026 9.7818 113.134 9.36298 113.134 8.86505V0.488625C113.134 0.353671 113.06 0.237332 112.919 0.139607H112.929Z" fill="#F7F7F7"/>
</g>
<defs>
<clipPath id="clip0_731_391">
<rect width="113.143" height="18" fill="white"/>
</clipPath>
</defs>
</svg>
