<svg width="24" height="24" viewBox="0 0 24 24" fill="none" xmlns="http://www.w3.org/2000/svg">
<path d="M17.903 18.7939C17.0089 16.4026 14.7033 14.7 12 14.7C9.29674 14.7 6.99114 16.4026 6.09705 18.7939M17.903 18.7939C19.8004 17.1439 21 14.712 21 12C21 7.02944 16.9706 3 12 3C7.02944 3 3 7.02944 3 12C3 14.712 4.19956 17.1439 6.09705 18.7939M17.903 18.7939C16.3228 20.1681 14.2585 21 12 21C9.74147 21 7.67724 20.1681 6.09705 18.7939M14.7 9.3C14.7 10.7912 13.4912 12 12 12C10.5088 12 9.3 10.7912 9.3 9.3C9.3 7.80883 10.5088 6.6 12 6.6C13.4912 6.6 14.7 7.80883 14.7 9.3Z" stroke="#F7F7F7" stroke-width="1.5" stroke-linejoin="round"/>
</svg>
